<svg xmlns="http://www.w3.org/2000/svg" viewBox="0 0 856 540" width="856" height="540">
  <defs>
    <linearGradient id="bg" x1="0" y1="0" x2="1" y2="1">
      <stop offset="0" stop-color="#B8913F"/>
      <stop offset="0.5" stop-color="#8C6A26"/>
      <stop offset="1" stop-color="#4F3A12"/>
    </linearGradient>
    <linearGradient id="sheen" x1="0" y1="0" x2="0" y2="1">
      <stop offset="0" stop-color="#FFFFFF" stop-opacity="0.12"/>
      <stop offset="0.55" stop-color="#FFFFFF" stop-opacity="0"/>
    </linearGradient>
    <linearGradient id="chip" x1="0" y1="0" x2="1" y2="1">
      <stop offset="0" stop-color="#F2F2F2"/>
      <stop offset="1" stop-color="#A9A9A9"/>
    </linearGradient>
  </defs>
  <rect width="856" height="540" rx="36" fill="url(#bg)"/>
  <rect width="856" height="540" rx="36" fill="url(#sheen)"/>
  <!-- chip -->
  <rect x="72" y="176" width="112" height="86" rx="14" fill="url(#chip)"/>
  <path d="M72 219h112M128 176v86M100 176v86M156 176v86" stroke="#7D7D7D" stroke-width="3" fill="none" opacity="0.7"/>
  <!-- Mastercard mark, after Mastercard_2019_logo.svg (Wikimedia Commons) -->
  <g transform="translate(560 356) scale(0.24)">
    <path fill="#EB001B" d="m308,0a309,309 0 1,0 2,0z"/>
    <path fill="#F79E1B" d="m690,0a309,309 0 1,0 2,0z"/>
    <path fill="#FF5F00" d="m500,66a309,309 0 0,0 0,486 309,309 0 0,0 0-486"/>
  </g>
</svg>
